PathFileType	4	(X/Y/Z)	TVC_12_Cal_03_0_static_RCNL2025.trc
DataRate	CameraRate	NumFrames	NumMarkers	Units	OrigDataRate	OrigDataStartFrame	OrigNumFrames
100	100	6	27	mm	100	1	25
Frame#	Time	R_Shoulder			L_Shoulder			C7			J_Notch			R_Elbow			L_Elbow			R_Wrist			L_Wrist			R_Asis			L_Asis			R_Psis			L_Psis			Sacral			Thoracic			Sternum			R_Thigh_Lateral			R_Knee_Lateral			R_Shank_Lateral			R_Ankle_Lateral			R_Heel			R_Toe			L_Thigh_Lateral			L_Knee_Lateral			L_Shank_Lateral			L_Ankle_Lateral			L_Heel			L_Toe		
		X1	Y1	Z1	X2	Y2	Z2	X3	Y3	Z3	X4	Y4	Z4	X5	Y5	Z5	X6	Y6	Z6	X7	Y7	Z7	X8	Y8	Z8	X9	Y9	Z9	X10	Y10	Z10	X11	Y11	Z11	X12	Y12	Z12	X13	Y13	Z13	X14	Y14	Z14	X15	Y15	Z15	X16	Y16	Z16	X17	Y17	Z17	X18	Y18	Z18	X19	Y19	Z19	X20	Y20	Z20	X21	Y21	Z21	X22	Y22	Z22	X23	Y23	Z23	X24	Y24	Z24	X25	Y25	Z25	X26	Y26	Z26	X27	Y27	Z27
1	0.00000000	-247.373322	1366.190063	-32.013485	-273.404541	1359.325439	-449.452667	-372.190063	1421.004028	-232.241180	-206.332489	1326.535034	-239.353043	-309.544342	1039.237549	48.900681	-371.182556	1027.971924	-513.643311	-268.231613	793.372650	11.442142	-304.297699	796.343140	-480.760605	-226.105743	929.326904	-63.454704	-253.045044	943.318359	-416.828339	-414.287476	933.723145	-165.508530	-424.555878	937.754272	-270.232391	-419.421677	935.738708	-217.870461	-439.680176	1164.169922	-227.558395	-103.912636	1145.269897	-252.708282	-223.301010	617.719421	-38.049877	-215.107742	454.292511	-88.701538	-283.936005	271.393585	-40.098202	-318.765808	62.778133	-95.988411	-361.248383	60.267948	-153.231262	-186.408463	49.250340	-112.778091	-283.036926	644.716919	-464.847473	-285.060699	475.125549	-385.353821	-315.967010	291.096191	-424.036285	-317.972473	75.123100	-358.398163	-356.589020	55.573994	-304.947876	-172.283417	43.658325	-350.617767
2	0.01000000	-247.377304	1366.175781	-31.931334	-273.214447	1359.441650	-449.341522	-372.139038	1421.000732	-232.158951	-206.195740	1326.666748	-239.199051	-309.597534	1039.200195	48.948647	-371.243622	1028.052856	-513.725403	-268.177719	793.319397	11.562392	-304.236404	796.450226	-480.688629	-226.442474	929.248718	-63.510052	-253.128906	943.201233	-416.789703	-414.354248	933.737366	-165.564621	-424.709656	937.726868	-270.230438	-419.531952	935.732117	-217.897530	-439.758362	1164.178833	-227.518616	-104.124756	1145.243042	-252.628036	-223.153717	617.737244	-37.971348	-215.088348	454.262268	-88.729889	-283.982849	271.457794	-40.091328	-318.920105	62.913712	-95.956589	-361.296906	60.326717	-153.234131	-186.424591	49.255913	-112.758087	-282.936584	644.781311	-464.956360	-284.950745	475.142944	-385.401154	-315.999054	291.190887	-423.936340	-317.883881	75.042755	-358.487091	-356.623810	55.590908	-305.034790	-172.269806	43.612694	-350.643158
3	0.02000000	-247.353058	1366.144653	-31.873497	-272.952881	1359.334595	-449.086212	-372.138977	1421.019653	-232.126785	-206.097366	1326.582031	-239.178513	-309.614441	1038.818726	48.823837	-371.237579	1028.111328	-513.737488	-268.376587	793.124847	11.597000	-304.042801	796.492615	-480.525314	-226.784042	929.204651	-63.401455	-253.204468	943.219727	-416.883728	-414.498871	933.723938	-165.572388	-424.808716	937.730408	-270.167145	-419.653793	935.727173	-217.869766	-439.823120	1164.190552	-227.571838	-104.116600	1145.284790	-252.469299	-222.935837	617.744751	-38.004719	-215.073425	454.239594	-88.714775	-283.943878	271.395203	-40.118641	-318.879974	62.932102	-96.017235	-361.267853	60.283081	-153.231705	-186.465103	49.290680	-112.760994	-282.813324	644.792786	-464.985138	-284.900970	475.102753	-385.421234	-315.819061	291.077148	-424.049469	-317.958984	75.037468	-358.416168	-356.557709	55.499760	-305.017883	-172.234955	43.643593	-350.608643
4	0.03000000	-247.333755	1366.113159	-31.797773	-272.798340	1359.461426	-448.973572	-372.050720	1420.989624	-232.089874	-206.120773	1326.623291	-239.059875	-309.618042	1038.757690	48.836430	-371.285675	1028.156128	-513.856018	-268.670135	793.066589	11.691147	-303.992706	796.567322	-480.578186	-226.912415	929.163696	-63.317333	-253.290283	943.271790	-416.788483	-414.609467	933.735840	-165.530960	-424.883881	937.758850	-270.126221	-419.746674	935.747345	-217.828590	-439.832947	1164.266235	-227.569839	-104.172035	1145.308228	-252.337067	-222.828568	617.756958	-37.998863	-215.154297	454.372009	-88.352440	-283.918823	271.396332	-40.112411	-318.835266	62.916000	-96.002243	-361.308044	60.329407	-153.209396	-186.463181	49.292694	-112.772835	-282.644653	644.726196	-465.108459	-284.850739	475.163422	-385.406769	-315.767029	291.086151	-423.959900	-317.952393	74.989891	-358.418243	-356.544281	55.515232	-305.013123	-172.265579	43.650387	-350.610413
5	0.04000000	-247.288147	1366.103149	-31.701588	-272.753082	1359.505737	-448.917450	-372.009521	1421.026123	-232.010666	-206.110825	1326.550781	-238.903854	-309.749084	1038.670532	48.816597	-371.268616	1028.250488	-513.797180	-268.950394	793.000671	11.722860	-303.912842	796.766418	-480.460297	-226.960251	929.162292	-63.307896	-253.321609	943.118958	-416.944244	-414.749878	933.780090	-165.517990	-424.905609	937.770691	-270.098541	-419.827744	935.775391	-217.808266	-439.934387	1164.252319	-227.483017	-104.091080	1145.218384	-252.266052	-222.743515	617.749695	-37.905090	-215.331436	454.372589	-88.486069	-283.997955	271.428040	-40.100456	-318.832275	62.936317	-96.024689	-361.265533	60.295616	-153.209732	-186.416168	49.254719	-112.774971	-282.427979	644.771729	-465.218689	-284.831329	475.150146	-385.420013	-315.808563	291.124512	-424.003387	-317.980164	75.030029	-358.390381	-356.551392	55.539940	-304.998169	-172.237946	43.665321	-350.553558
6	0.05000000	-247.270157	1366.169067	-31.598625	-272.719879	1359.439209	-448.853638	-372.059021	1421.109863	-231.931427	-206.181534	1326.660645	-238.762405	-309.614044	1038.553833	48.729126	-370.531982	1028.494141	-512.996338	-269.321320	792.931641	11.772804	-303.824127	796.789673	-480.436874	-226.800720	929.240112	-63.246624	-253.446838	943.302673	-416.774323	-414.764343	933.789124	-165.496460	-425.044800	937.751770	-270.104858	-419.904572	935.770447	-217.800659	-439.963074	1164.348755	-227.465775	-104.098862	1145.292480	-252.234253	-222.825378	617.734314	-37.932358	-215.468399	454.288055	-88.612633	-284.104736	271.424561	-40.097488	-318.683777	62.677437	-95.968079	-361.294769	60.248104	-153.213593	-186.313019	49.306107	-112.802971	-282.288971	644.694641	-465.269714	-284.850769	475.107117	-385.375488	-315.826111	291.099182	-423.999817	-317.964111	74.985802	-358.402222	-356.558289	55.537926	-304.988617	-172.164658	43.652328	-350.631165
